Coordinates
version=1
nRows=17
nColumns=24
inDegrees=yes

Units are S.I. units (second, meters, Newtons, ...)
Angles are in degrees.

endheader
time	pelvis_tilt	pelvis_list	pelvis_rotation	pelvis_tx	pelvis_ty	pelvis_tz	hip_flexion_r	hip_adduction_r	hip_rotation_r	knee_angle_r	ankle_angle_r	subtalar_angle_r	mtp_angle_r	hip_flexion_l	hip_adduction_l	hip_rotation_l	knee_angle_l	ankle_angle_l	subtalar_angle_l	mtp_angle_l	lumbar_extension	lumbar_bending	lumbar_rotation
      5.22500000	     -5.93497781	      2.77465021	     -0.77154317	     -1.39820512	      0.00166352	     -0.29924073	     -1.45519767	      2.66134203	      3.52930089	     -6.11535721	      6.38197847	     -9.09875486	      6.73059816	     30.30039428	     -1.67088395	    -10.33654533	    -36.79237598	     16.49081311	     -6.03789094	    -77.98550622	      0.76183688	     -3.07500756	      5.50583770
      5.23000000	     -5.80867281	      2.71062238	     -1.09284500	     -1.39168055	      0.00100668	     -0.29899810	     -2.21413293	      2.70915826	      3.47814744	     -5.72267236	      6.49877111	     -8.77621251	      7.17861688	     30.19256892	     -1.76504258	    -10.68829522	    -35.02158012	     16.38207781	     -5.89368965	    -77.70265622	      0.61197821	     -2.97478260	      5.85547074
      5.23500000	     -5.58874751	      2.65711662	     -1.29140289	     -1.38506602	      0.00036509	     -0.29891813	     -3.09814631	      2.73440177	      3.15004994	     -5.28414446	      6.51065477	     -8.39387742	      8.20919048	     29.96503389	     -1.78129076	    -10.97633093	    -33.21826931	     16.18588758	     -5.68777719	    -77.08021997	      0.36300836	     -2.89747164	      6.00748610
      5.24000000	     -5.54293107	      2.61449979	     -1.58596483	     -1.37844233	     -0.00052114	     -0.29886285	     -3.75131172	      2.73096775	      2.92650598	     -4.89385573	      6.41006351	     -8.04619423	     10.02733621	     29.89443248	     -1.81280014	    -11.31533738	    -31.38339914	     15.84109666	     -5.58341306	    -76.01180574	      0.31108549	     -2.80729126	      6.35027300
      5.24500000	     -5.54340944	      2.46809492	     -1.92865574	     -1.37194522	     -0.00152938	     -0.29860108	     -4.31299016	      2.86549416	      2.97873144	     -4.63718528	      6.58647495	     -7.77625847	     10.21634907	     29.88177790	     -2.02902291	    -11.75820856	    -29.58318622	     15.72292142	     -5.25229802	    -75.92297401	      0.28433463	     -2.62347491	      6.68702557
      5.25000000	     -5.33604540	      2.42094946	     -2.20096215	     -1.36533403	     -0.00232844	     -0.29846089	     -5.11565962	      2.87442921	      2.80317281	     -4.35693606	      6.77497498	     -7.36704513	     10.64029432	     29.57152548	     -2.07772562	    -12.19546197	    -27.65758141	     15.51643101	     -4.94060652	    -75.77936768	      0.04612302	     -2.55601337	      6.93105179
      5.25500000	     -5.26441521	      2.39732331	     -2.51450701	     -1.35867562	     -0.00329634	     -0.29830981	     -5.73477393	      2.85359751	      2.73061440	     -4.15114838	      7.00315880	     -6.99708765	     11.04730007	     29.37373668	     -2.12785966	    -12.72422568	    -25.70220445	     15.33052170	     -4.57557950	    -75.70599262	     -0.03428212	     -2.50389874	      7.22679998
      5.26000000	     -5.07640159	      2.44390767	     -2.71428583	     -1.35197831	     -0.00414315	     -0.29826988	     -6.48599404	      2.75074160	      2.46070316	     -3.93157570	      7.19832154	     -6.55103009	     11.73054400	     29.01837185	     -2.04409676	    -13.23436161	    -23.69687044	     15.13436999	     -4.06595200	    -75.68299225	     -0.23940889	     -2.54560160	      7.38878957
      5.26500000	     -5.02730620	      2.48808293	     -3.02980208	     -1.34541287	     -0.00508978	     -0.29811035	     -7.00681913	      2.65042688	      2.40125760	     -3.84717080	      7.43467217	     -6.21139265	     12.13436226	     28.79082729	     -2.03208548	    -13.95760695	    -21.68453350	     14.96445463	     -3.49122988	    -75.74505611	     -0.30962998	     -2.57155822	      7.68077955
      5.27000000	     -4.88299281	      2.62673049	     -3.26280475	     -1.33878972	     -0.00590711	     -0.29802554	     -7.63046736	      2.44190629	      2.21820064	     -3.76617909	      7.69114361	     -5.81149399	     12.58174984	     28.42621897	     -1.87334345	    -14.72555796	    -19.63712251	     14.84942410	     -2.74582469	    -75.90614901	     -0.47488643	     -2.71208915	      7.87381182
      5.27500000	     -4.68137430	      2.84347868	     -3.38900403	     -1.33216367	     -0.00663327	     -0.29812398	     -8.30269535	      2.14093288	      1.82963164	     -3.69608805	      7.92931685	     -5.29502447	     13.42985744	     27.97895942	     -1.55354012	    -15.45258811	    -17.54950655	     14.77806030	     -1.96051930	    -76.46253676	     -0.70115768	     -2.93983040	      7.86966328
      5.28000000	     -4.59046737	      3.04805099	     -3.58966833	     -1.32553171	     -0.00747384	     -0.29808705	     -8.81614917	      1.85881985	      1.63710423	     -3.70342418	      8.18718326	     -4.92665898	     13.93061270	     27.65070103	     -1.30817093	    -16.39368060	    -15.54652563	     14.87767734	     -0.85568530	    -77.00928413	     -0.80080400	     -3.15246983	      8.05244889
      5.28500000	     -4.56748629	      3.25541324	     -3.83068344	     -1.31896257	     -0.00833908	     -0.29809435	     -9.20548151	      1.56133217	      1.54951444	     -3.80120730	      8.48093704	     -4.55474814	     14.22495015	     27.39161331	     -1.06299197	    -17.49788250	    -13.56731724	     14.91768453	      0.34464151	    -77.43112371	     -0.83459601	     -3.35181814	      8.19337018
      5.29000000	     -4.39249571	      3.54936238	     -3.98742954	     -1.31227332	     -0.00908045	     -0.29824390	     -9.74336007	      1.15518960	      1.02216456	     -3.89752013	      8.70889580	     -3.89789540	     15.59584876	     26.89559574	     -0.63307045	    -18.39055255	    -11.41240046	     15.27674562	      1.36438978	    -81.22965156	     -1.01844573	     -3.65543035	      8.28955727
      5.29500000	     -4.31221974	      3.70473010	     -4.15003827	     -1.30555057	     -0.01000166	     -0.29838719	    -10.21101145	      0.91254638	      0.95301712	     -4.00124910	      8.94660561	     -3.65312003	     15.67935581	     26.58527525	     -0.37647089	    -19.56989109	     -9.58019166	     15.44233851	      3.02819757	    -81.67779864	     -1.09968274	     -3.80758653	      8.30284015
      5.30000000	     -4.12427720	      3.92887652	     -4.34575349	     -1.29869660	     -0.01082664	     -0.29862093	    -10.74520371	      0.56168063	      0.61889632	     -4.18657639	      9.25783355	     -3.06441026	     16.20113272	     26.05422779	      0.01054642	    -20.52608507	     -7.49862397	     15.85046152	      4.24664590	    -86.26235262	     -1.27224964	     -4.02336254	      8.43519972
      5.30500000	     -4.00117314	      4.05924717	     -4.53594673	     -1.29181089	     -0.01178648	     -0.29888689	    -11.22292778	      0.31480557	      0.48618578	     -4.36647313	      9.47941731	     -2.70863138	     16.50985357	     25.66173027	      0.29633655	    -21.55039975	     -5.68075290	     16.11665117	      5.79231244	    -88.86590696	     -1.37753189	     -4.13695134	      8.50379675
